<?xml version="1.0" encoding="utf-8"?>
<!DOCTYPE svg PUBLIC "-//W3C//DTD SVG 1.0//EN" "http://www.w3.org/TR/2001/REC-SVG-20010904/DTD/svg10.dtd">
<svg version="1.0" xmlns="http://www.w3.org/2000/svg" width="575px" height="540px" viewBox="0 0 575 540" preserveAspectRatio="xMidYMid meet">
 <g fill="#17438c">
  <path d="M243.67 517.23 c-7.79 -4.52 -31.04 -17.91 -51.73 -29.73 -32.94 -18.89 -75.69 -43.51 -97.52 -56.19 -3.92 -2.29 -17.42 -10.02 -30.06 -17.21 l-22.92 -13.07 -0.05 -124.26 0 -124.26 3.16 -1.85 c1.69 -1.03 7.51 -4.41 12.90 -7.46 5.39 -3.05 13.99 -7.95 19.06 -10.89 12.36 -7.13 43.45 -24.78 49.55 -28.21 2.72 -1.47 8.60 -4.85 13.07 -7.46 12.90 -7.51 37.03 -21.40 43.02 -24.78 4.14 -2.34 65.50 -37.52 74.60 -42.74 1.63 -0.93 1.63 -0.93 5.45 1.25 4.19 2.34 22.76 12.63 27.39 15.08 l2.89 1.58 6.10 -1.42 c14.81 -3.48 20.15 -4.25 33.05 -4.63 23.25 -0.65 45.74 4.19 67.36 14.54 13.39 6.37 22.27 12.80 33.38 23.90 9.42 9.47 13.94 15.63 19 25.92 5.94 11.98 8.17 19.66 9.42 32.23 l0.65 6.64 7.24 4.14 7.24 4.19 -0.11 124.20 -0.16 124.15 -12.52 7.19 c-6.86 3.92 -21.56 12.36 -32.67 18.79 -11.05 6.37 -26.03 14.97 -33.21 19.06 -7.19 4.14 -17.10 9.80 -22.05 12.63 -4.96 2.89 -16.55 9.58 -25.86 14.92 -9.26 5.34 -24.72 14.21 -34.30 19.71 -40.57 23.36 -55.43 31.85 -56.30 32.02 -0.49 0.16 -7.24 -3.48 -15.03 -8z m-39.59 -72.15 c1.14 -0.33 1.20 -0.60 1.20 -5.99 l0 -5.66 -8.71 0 -8.71 0 0 5.45 c0 5.17 0.05 5.50 1.25 5.99 1.36 0.54 13.07 0.71 14.97 0.22z m-0.05 -33.87 l3.38 -5.28 -9.58 -0.16 c-5.28 -0.05 -9.69 0 -9.80 0.11 -0.27 0.22 4.68 7.90 6.26 9.75 0.60 0.65 1.58 0.93 3.59 0.87 l2.78 0 3.38 -5.28z m12.09 -16.01 c1.80 -2.18 3.05 -4.03 2.78 -4.14 -0.33 -0.11 -0.54 -0.98 -0.54 -1.96 0 -1.42 1.52 -4.03 6.92 -11.82 19.55 -28.42 23.41 -34.63 29.62 -47.59 4.41 -9.20 6.48 -14.92 8.33 -23.20 2.01 -9.20 2.67 -16.88 1.96 -23.47 -0.54 -5.06 -2.61 -13.39 -3.81 -15.74 -0.98 -1.74 -0.65 -4.36 0.54 -4.68 0.60 -0.16 1.09 -0.38 1.09 -0.54 0 -0.71 -5.17 -6.10 -8.71 -9.09 -7.90 -6.64 -17.21 -11.92 -27.39 -15.52 -5.94 -2.07 -6.81 -2.12 -3.65 -0.11 8.22 5.17 14.43 16.93 16.34 30.87 1.09 8.17 0.44 25.43 -1.31 34.79 -3.27 17.26 -10.35 39.20 -24.61 76.61 l-2.67 6.97 -5.28 0 -5.34 0 0 -1.85 c0 -0.98 1.09 -7.51 2.40 -14.54 5.55 -29.13 9.20 -53.04 11 -71.28 1.14 -11.33 1.31 -29.84 0.33 -36.75 -1.42 -10.02 -4.46 -18.84 -7.95 -22.98 -2.29 -2.72 -1.69 -6.04 1.03 -6.21 0.60 -0.05 -0.11 -0.33 -1.63 -0.60 -3.27 -0.60 -16.83 -0.60 -20.96 -0.05 -2.89 0.44 -2.99 0.49 -3.16 2.29 -0.11 1.14 -1.03 2.89 -2.40 4.63 -10.13 12.63 -11.82 38.44 -5.06 76.88 1.91 11.16 5.99 29.89 10.89 50.26 2.23 9.42 4.08 17.81 4.08 18.62 l0 1.58 -5.06 0 -5.06 0 -6.92 -15.63 c-15.14 -34.63 -22.16 -54.51 -25.43 -72.58 -1.47 -7.95 -2.07 -23.03 -1.14 -29.46 1.85 -13.12 7.24 -23.58 15.19 -29.62 1.31 -1.03 2.29 -1.91 2.12 -1.91 -1.03 0 -11.49 4.68 -15.25 6.86 -5.61 3.16 -8.88 5.55 -13.50 9.75 -3.48 3.16 -9.75 10.07 -9.75 10.84 0 0.16 0.76 0.33 1.63 0.33 2.07 0 2.12 0.82 0.27 7.73 -1.91 7.24 -2.67 13.99 -2.23 19.77 1.09 14.05 5.99 29.13 14.27 43.94 6.59 11.76 16.01 26.35 23.96 37.19 6.59 8.98 8.93 12.85 8.93 14.81 0 1.52 0.65 2.67 3.65 6.21 l3.70 4.30 17.26 0 17.32 0 3.21 -3.92z m132.04 -47.05 c0.76 -0.27 0.87 -1.52 0.87 -7.90 l0 -7.57 -10.56 0 c-5.83 0 -10.94 0.16 -11.43 0.33 -0.71 0.27 -0.87 1.47 -0.87 7.24 0 4.63 0.22 7.13 0.65 7.57 0.71 0.71 19.66 0.98 21.34 0.33z m-231.42 -30.98 c-1.80 -5.72 -2.94 -13.34 -2.99 -20.69 -0.11 -5.77 -0.11 -5.88 -0.54 -2.45 -0.49 4.08 0.22 12.74 1.42 17.64 1.14 4.36 3.05 10.24 3.32 10.02 0.11 -0.11 -0.44 -2.18 -1.20 -4.52z m158.83 -7.08 c1.03 -5.01 1.36 -15.25 0.60 -19.55 -0.22 -1.20 -0.38 1.85 -0.44 7.08 -0.05 6.21 -0.33 10.45 -0.87 13.01 -0.49 2.12 -1.03 4.57 -1.20 5.45 -0.33 1.58 -0.33 1.58 0.27 0.27 0.33 -0.76 1.03 -3.54 1.63 -6.26z m72.31 -4.36 c3.05 -5.23 3.48 -5.72 4.96 -5.72 1.52 0 1.69 -0.22 2.78 -3.87 0.65 -2.12 2.01 -5.06 2.99 -6.59 1.03 -1.47 1.85 -2.83 1.85 -2.94 0 -0.11 -0.76 -0.22 -1.69 -0.22 -1.20 0 -1.74 -0.27 -1.96 -1.03 -0.22 -0.87 -0.44 -0.98 -1.25 -0.49 -0.71 0.49 -2.45 0.38 -7.02 -0.33 -6.32 -1.03 -17.04 -0.93 -23.20 0.22 -1.47 0.27 -3.76 0.49 -5.01 0.49 -1.31 0.05 -2.34 0.27 -2.34 0.54 0 0.22 -1.25 0.65 -2.78 0.93 l-2.72 0.49 1.69 2.34 c0.98 1.25 2.29 3.81 2.99 5.72 3.38 9.15 3.05 8.55 5.17 8.55 1.52 0 2.12 0.33 2.83 1.52 0.49 0.82 1.63 2.50 2.56 3.81 l1.69 2.29 7.51 0 7.57 0 3.38 -5.72z m-47.05 -36.75 c0.44 -0.33 2.61 -0.76 4.85 -0.93 3.32 -0.27 4.14 -0.16 4.19 0.44 0.05 0.44 0.22 0.16 0.44 -0.60 0.33 -1.20 0.82 -1.42 4.68 -1.96 11.87 -1.80 31.80 -2.45 33 -1.14 0.38 0.38 1.63 0.60 3.43 0.44 1.52 -0.11 4.79 0.11 7.30 0.49 3.48 0.49 4.46 0.87 4.46 1.58 0 0.71 0.49 0.82 2.78 0.65 1.52 -0.05 3.81 0 5.12 0.22 2.12 0.27 2.40 0.49 2.56 1.91 0.16 1.52 0.33 1.42 4.52 -3.21 2.40 -2.61 8.33 -9.04 13.12 -14.27 29.40 -31.74 42.58 -49.11 51.95 -68.66 6.86 -14.32 9.96 -26.68 10.02 -39.91 0.05 -9.04 -0.71 -13.83 -3.59 -22.60 -1.52 -4.85 -7.13 -17.42 -7.68 -17.42 -0.16 0 0.54 2.40 1.52 5.34 2.67 7.95 3.27 12.20 3.27 23.52 -0.05 8.22 -0.27 11.22 -1.25 16.34 -4.63 23.58 -16.61 47.10 -36.21 71.22 -7.51 9.26 -10.40 12.09 -12.31 12.09 -1.58 0 -1.69 -0.11 -1.69 -1.96 0 -1.58 1.47 -4.46 6.81 -13.56 14.38 -24.39 22.54 -44.60 26.95 -66.70 4.41 -22.05 3.27 -40.24 -3.54 -56.47 -1.14 -2.61 -2.07 -5.77 -2.12 -6.97 -0.05 -1.96 0.11 -2.18 1.47 -2.45 l1.52 -0.27 -2.89 -2.78 c-8.44 -8.17 -20.31 -15.85 -33.38 -21.62 -7.35 -3.27 -8.88 -3.59 -4.68 -1.09 11.16 6.70 19.82 22.38 23.03 41.82 1.03 6.43 0.87 28.80 -0.27 36.37 -4.57 29.84 -16.12 58.37 -39.48 97.68 -3.43 5.83 -3.76 6.15 -5.39 6.15 -1.69 0 -1.80 -0.11 -1.80 -1.80 0 -0.98 1.25 -5.23 2.78 -9.37 8.98 -24.78 14.54 -51.29 18.24 -87.67 1.31 -12.74 1.31 -33.60 0 -42.47 -2.67 -18.51 -7.19 -30.66 -14.54 -39.42 -3.54 -4.25 -4.25 -6.81 -2.07 -7.57 1.85 -0.71 -11 -3.16 -22.05 -4.25 l-3.76 -0.38 1.42 1.91 c2.18 2.83 4.08 7.62 5.61 13.88 2.50 10.29 3.05 16.17 3.32 35.83 0.38 26.14 -0.65 38.17 -7.73 87.67 -2.23 15.57 -4.68 33.87 -5.55 40.67 l-1.52 12.41 -1.74 0 c-1.42 0 -1.74 -0.22 -2.01 -1.47 -0.16 -0.87 -1.52 -8.49 -2.99 -17.04 -1.52 -8.55 -3.59 -20.04 -4.68 -25.59 -3.92 -20.31 -7.13 -40.51 -9.37 -58.81 -1.36 -11.38 -1.36 -42.14 0 -51.46 2.45 -16.44 6.92 -29.51 12.14 -35.56 l2.01 -2.40 -2.40 0.33 c-14.27 1.85 -28.21 4.52 -24.01 4.63 1.58 0.05 1.74 0.22 1.74 1.74 0 1.31 -0.71 2.45 -2.78 4.74 -3.70 4.03 -6.37 8.06 -9.47 14.27 -10.67 21.24 -12.80 50.86 -6.53 89.84 4.03 24.88 8.98 43.18 17.37 64.36 1.96 4.96 3.59 9.69 3.59 10.51 0 1.31 -0.16 1.42 -2.01 1.25 -2.01 -0.16 -2.18 -0.38 -7.68 -8.88 -22.92 -35.61 -34.90 -64.09 -38.50 -91.37 -1.09 -8.49 -1.09 -27.06 0 -34.41 1.91 -12.63 5.99 -23.96 11.76 -32.45 3.10 -4.63 9.20 -10.73 13.56 -13.50 4.03 -2.61 2.99 -2.50 -4.25 0.54 -11.76 4.96 -24.61 13.23 -32.67 20.96 l-5.28 5.06 2.12 0.05 2.07 0 -0.27 2.34 c-0.11 1.25 -1.14 4.36 -2.18 6.92 -4.25 10.07 -6.32 19.71 -6.75 31.58 -0.93 23.52 7.19 52 22.60 79.23 1.36 2.40 5.61 9.20 9.47 15.14 7.90 12.31 8.49 13.99 4.85 13.99 -2.07 0 -2.40 -0.27 -8.82 -7.35 -18.13 -20.04 -30.71 -40.18 -37.30 -59.90 -3.54 -10.67 -4.68 -17.97 -4.68 -30.76 -0.05 -11.98 0.65 -17.48 3.43 -25.70 0.93 -2.78 1.74 -5.45 1.91 -5.88 0.16 -0.44 -0.76 1.14 -2.01 3.54 -2.83 5.39 -6.04 15.14 -7.35 22.32 -1.52 8.06 -1.42 21.40 0.22 29.57 4.36 21.83 15.85 42.31 36.97 65.99 2.56 2.83 13.50 14.38 24.34 25.59 17.59 18.24 19.66 20.26 19.82 18.95 0.11 -0.76 0.49 -1.74 0.93 -2.07z"/>
 </g>
 <g fill="#fffffe">
  <path d="M187.47 446.50 c-1.20 -0.49 -1.25 -0.76 -1.25 -7.62 l0 -7.08 10.35 0 10.35 0 0 7.30 c0 7.08 -0.05 7.30 -1.20 7.62 -1.96 0.49 -16.88 0.33 -18.24 -0.22z"/>
  <path d="M189.38 426.51 c-0.11 -1.74 -0.11 -3.38 0 -3.65 0.16 -0.27 1.91 -0.33 3.87 -0.16 l3.59 0.27 -0.16 -2.34 c-0.22 -2.23 -0.33 -2.40 -1.91 -2.56 -1.52 -0.16 -2.23 -0.93 -6.21 -6.70 -2.50 -3.59 -4.52 -6.70 -4.52 -6.92 0 -0.27 6.04 -0.44 13.39 -0.44 10.24 0 13.50 0.16 14.05 0.71 0.60 0.60 0.05 2.40 -3.10 9.91 -2.50 6.15 -3.92 10.24 -4.03 12.14 -0.33 3.38 -1.25 3.27 -1.25 -0.22 l0 -2.40 -5.23 0 c-6.43 0 -7.30 0.38 -7.30 3.27 0 3.32 -0.98 2.56 -1.20 -0.93z m15.85 -6.15 c4.68 -11.16 6.15 -14.81 5.88 -15.08 -0.16 -0.16 -2.23 2.67 -4.57 6.26 -4.14 6.43 -4.30 6.59 -6.26 6.59 l-2.07 0.05 0 2.45 0 2.45 2.99 -0.11 c2.94 -0.16 2.99 -0.16 4.03 -2.61z"/>
  <path d="M171.14 394.33 c-2.99 -3.48 -10.67 -11.98 -16.99 -18.79 -6.32 -6.86 -13.12 -14.43 -15.19 -16.88 -9.96 -11.82 -18.35 -24.56 -22.11 -33.71 -6.81 -16.50 -7.41 -34.14 -1.58 -48.90 4.14 -10.40 13.01 -21.45 23.30 -28.91 16.17 -11.76 42.20 -18.68 63.44 -16.83 27.39 2.34 50.58 13.88 64.14 31.85 3.70 4.96 8.44 14.48 10.24 20.69 1.91 6.48 2.45 20.26 1.09 27.50 -3.65 19.44 -14.10 35.99 -41.71 66.16 -8.82 9.64 -14.27 15.79 -18.68 21.13 l-2.67 3.10 -18.84 0 -18.89 0 -5.55 -6.43z m52.44 -8.11 c19.06 -21.67 32.51 -39.04 39.31 -50.80 11.92 -20.47 14.48 -41.16 7.41 -59.51 -2.23 -5.83 -5.50 -11.82 -6.43 -11.82 -1.25 0 -1.25 0.54 0 4.03 4.03 11.11 4.36 24.83 0.98 40.02 -1.85 8.28 -3.92 13.99 -8.33 23.20 -6.21 12.96 -10.07 19.17 -29.62 47.59 -3.81 5.50 -6.92 10.13 -6.92 10.24 0 0.71 1.25 -0.27 3.59 -2.94z m-54.83 1.36 c-0.76 -1.47 -4.46 -6.75 -8.39 -12.14 -11.92 -16.34 -24.29 -36.54 -29.40 -48.13 -8.93 -20.09 -11.11 -38.88 -6.59 -55.87 l1.25 -4.63 -1.20 0 c-2.29 0 -6.53 9.96 -8.11 19 -3.43 19.93 2.67 39.20 19.98 63.49 7.35 10.29 31.64 39.48 32.83 39.48 0.16 0 -0.05 -0.54 -0.38 -1.20z m18.35 -3.54 c-0.87 -2.89 -9.31 -39.15 -11.43 -49.17 -5.17 -24.78 -6.86 -37.03 -7.24 -53.36 -0.33 -14.27 0.22 -21.07 2.34 -29.24 1.69 -6.43 3.76 -11.05 6.75 -14.81 l2.29 -2.89 -2.07 0.27 c-11.16 1.47 -20.09 7.84 -25.37 18.08 -4.52 8.82 -6.21 17.75 -5.72 29.95 0.87 20.64 7.79 42.85 26.90 86.47 l6.92 15.63 3.43 0 c3.10 0 3.48 -0.11 3.21 -0.93z m24.94 -6.04 c19.44 -50.97 25.70 -73.07 26.30 -93.66 0.33 -10.51 -0.27 -16.72 -2.40 -24.07 -2.72 -9.42 -8.77 -18.13 -15.03 -21.73 -3.16 -1.74 -9.53 -3.87 -11.76 -3.87 -2.45 0 -2.94 1.03 -1.36 2.89 3.48 4.14 6.53 12.96 7.95 22.98 0.98 7.13 0.87 28.48 -0.33 40.02 -1.80 18.35 -5.50 42.25 -11 71.28 -1.31 7.02 -2.40 12.80 -2.40 12.90 0 0.11 1.63 0.22 3.70 0.22 l3.65 0 2.67 -6.97z"/>
  <path d="M325.18 349.46 c-0.44 -0.44 -0.65 -3.27 -0.65 -9.26 0 -8.44 0 -8.60 1.25 -8.88 0.65 -0.16 6.59 -0.22 13.18 -0.16 l11.98 0.16 -0.22 8.98 c-0.11 5.99 -0.38 9.09 -0.76 9.37 -1.14 0.71 -24.07 0.49 -24.78 -0.22z"/>
  <path d="M327.03 328.56 c-0.16 -0.49 -0.33 -1.42 -0.33 -2.18 0 -0.71 -2.50 -7.46 -5.50 -15.03 -3.05 -7.57 -5.77 -14.59 -6.04 -15.57 -1.20 -4.25 -9.96 -14.32 -34.69 -39.86 -19.82 -20.42 -28.64 -30.06 -35.83 -39.04 -14.87 -18.51 -23.79 -36.26 -27.50 -54.72 -1.03 -5.12 -1.25 -7.90 -1.25 -16.77 0 -12.31 0.82 -17.75 4.14 -27.93 7.84 -24.07 25.81 -43.89 51.46 -56.74 11.22 -5.61 28.04 -10.56 44.87 -13.18 8.71 -1.36 29.84 -1.36 38.39 0 25.16 4.03 47.97 13.67 65.12 27.50 5.77 4.63 14.76 14.16 19.17 20.31 4.36 6.10 9.96 17.26 12.31 24.45 2.99 9.31 3.59 13.45 3.54 24.23 0 8.44 -0.22 10.73 -1.47 16.66 -1.80 8.66 -4.46 16.39 -8.55 24.88 -9.37 19.55 -22.54 36.92 -51.95 68.66 -26.25 28.37 -33.05 36.26 -34.47 40.13 -0.33 0.87 -2.72 7.73 -5.34 15.30 -4.46 12.90 -4.74 13.88 -4.41 16.72 0.44 3.21 -0.44 4.41 -0.98 1.42 -0.16 -0.87 -0.49 -2.34 -0.65 -3.27 -0.16 -0.98 -0.65 -1.63 -1.14 -1.63 -0.71 0 -0.82 0.54 -0.54 3.27 0.33 2.67 0.22 3.27 -0.44 3.27 -0.65 0 -0.82 -0.82 -0.82 -4.08 l0 -4.08 -5.99 0 -5.99 0 0 1.58 c0 2.72 -0.65 6.59 -1.14 6.59 -0.27 0 -0.49 -1.69 -0.49 -3.81 0 -5.72 -1.03 -5.06 -1.91 1.25 -0.38 2.61 -0.98 3.27 -1.58 1.69z m1.63 -8.49 c0.98 -5.66 0.98 -6.81 -0.27 -7.13 -0.60 -0.11 -2.12 -1.85 -3.43 -3.87 -1.36 -2.12 -2.72 -3.59 -3.27 -3.59 -0.54 0 -0.98 0.27 -0.98 0.65 0 0.38 1.47 4.36 3.27 8.93 1.80 4.52 3.27 8.55 3.27 8.93 0 1.80 0.76 -0.38 1.42 -3.92z m23.41 -10.62 c2.67 -7.41 2.72 -7.79 1.58 -7.79 -1.03 0 -7.90 11.54 -7.62 12.85 0.11 0.60 0.49 2.61 0.87 4.57 l0.71 3.48 1.03 -3.21 c0.60 -1.80 2.12 -6.26 3.43 -9.91z m-7.24 6.48 l-0.33 -2.83 -6.64 0 -6.64 0 -0.38 1.69 c-0.76 3.87 -1.09 3.70 6.92 3.87 3.92 0.11 7.24 0.16 7.30 0.11 0.05 0 0 -1.31 -0.22 -2.83z m-30 -34.09 c-0.87 -1.52 -2.78 -4.96 -4.25 -7.57 l-2.67 -4.79 -2.45 0.33 c-4.52 0.65 -4.46 1.20 0.27 6.92 6.92 8.22 7.13 8.44 9.04 8.17 l1.63 -0.22 -1.58 -2.83z m51.35 -3.87 c2.99 -3.76 5.50 -7.02 5.61 -7.30 0.22 -0.60 -4.08 -1.36 -5.61 -1.03 -1.20 0.22 -8.11 13.18 -7.68 14.32 0.71 1.91 2.40 0.54 7.68 -5.99z m-40.40 4.85 c0.82 -0.16 1.47 -0.44 1.47 -0.60 0 -0.22 -0.93 -3.70 -2.01 -7.90 -2.29 -8.55 -1.58 -7.95 -8.55 -6.86 -2.45 0.38 -4.36 0.93 -4.52 1.36 -0.22 0.60 5.61 12.41 7.08 14.21 0.54 0.71 1.96 0.65 6.53 -0.22z m32.45 -7.08 c1.80 -3.59 3.32 -6.86 3.32 -7.13 0 -0.65 -8.33 -2.07 -10.07 -1.74 -0.82 0.16 -1.31 1.36 -2.50 6.21 -0.82 3.32 -1.63 6.75 -1.80 7.73 l-0.38 1.69 3.43 0.49 c2.34 0.33 3.65 0.33 4.03 -0.05 0.38 -0.33 2.12 -3.54 3.97 -7.19z m-13.12 -1.42 c1.42 -6.15 1.63 -7.79 1.09 -8.17 -0.76 -0.54 -18.02 -0.22 -18.89 0.33 -0.38 0.27 2.29 12.20 3.43 15.30 0.11 0.33 2.61 0.49 6.43 0.38 l6.21 -0.16 1.74 -7.68z m29.57 -54.78 c18.84 -33.76 27.82 -57.45 31.91 -84.34 1.14 -7.46 1.31 -26.84 0.27 -33.11 -2.61 -15.90 -7.95 -27.61 -16.44 -36.26 -4.14 -4.19 -5.28 -5.06 -10.89 -7.73 -6.70 -3.27 -10.73 -4.57 -12.20 -4.03 -0.76 0.27 -0.33 1.03 2.34 4.25 7.35 8.77 11.82 20.85 14.54 39.42 1.36 9.04 1.36 32.78 0 45.74 -3.70 36.10 -9.04 61.91 -17.81 86.41 -1.47 4.08 -2.83 7.90 -2.99 8.44 -0.65 1.96 4.96 -7.35 11.27 -18.79z m-33.27 -36.05 c6.64 -46.50 7.84 -60.11 7.46 -84.13 -0.16 -10.84 -0.60 -18.95 -1.14 -22.76 -1.85 -12.96 -5.50 -23.85 -8.93 -26.52 -1.25 -1.03 -1.96 -1.14 -4.74 -0.93 -2.99 0.27 -3.43 0.49 -5.34 2.61 -5.17 5.83 -9.69 19.06 -12.20 35.61 -1.36 9.26 -1.36 36.92 0 48.19 2.18 18.19 5.45 38.44 9.37 58.81 1.09 5.55 3.16 17.04 4.68 25.59 1.47 8.55 2.83 16.28 3.05 17.15 0.22 1.09 0.98 -3.21 2.18 -12.80 0.98 -7.95 3.54 -26.30 5.61 -40.84z m-39.86 46.45 c-9.91 -24.78 -16.34 -50.86 -19.82 -80.75 -1.14 -10.24 -1.58 -31.20 -0.82 -40.18 1.96 -22.22 8.55 -39.91 19.11 -51.46 l2.83 -3.10 -1.96 0 c-2.67 0 -10.07 2.78 -14.70 5.55 -4.52 2.67 -11.22 9.15 -14.48 13.99 -5.72 8.55 -9.80 19.82 -11.71 32.45 -1.09 7.19 -1.09 22.81 0 31.15 2.83 21.51 12.36 47.37 26.52 71.98 4.96 8.60 17.53 28.37 18.08 28.37 0.11 0 -1.31 -3.59 -3.05 -8z m-34.69 -7.62 c-10.67 -16.50 -16.12 -26.63 -21.45 -40.18 -7.68 -19.38 -11.11 -37.63 -10.56 -55.81 0.44 -14.70 2.83 -25.05 8.93 -38.50 0.16 -0.44 -0.16 -0.71 -0.87 -0.71 -1.47 0 -7.13 7.51 -10.62 14.10 -2.99 5.77 -5.94 14.43 -7.13 21.02 -1.36 7.35 -1.20 21.62 0.22 29.95 3.27 18.46 13.94 40.13 29.84 60.55 4.90 6.32 17.42 20.31 18.13 20.31 0.27 0 -2.67 -4.85 -6.48 -10.73z m140.81 -3.54 c33.11 -40.67 45.09 -81.46 32.89 -111.46 -3.16 -7.79 -12.74 -21.56 -14.70 -21.13 -1.03 0.22 -1.09 0.05 1.36 5.99 6.86 16.88 8.06 36.97 3.48 59.73 -4.41 22.11 -12.58 42.31 -26.95 66.70 -3.76 6.32 -6.81 11.76 -6.81 11.98 0 0.60 6.04 -6.10 10.73 -11.82z"/>
  <path d="M523.16 76.39 c-1.14 -0.27 -1.20 -0.38 -0.27 -1.85 0.60 -0.98 0.38 -1.31 -2.07 -3.43 -1.47 -1.31 -2.56 -2.61 -2.34 -2.83 0.65 -0.65 4.90 0.98 6.75 2.61 1.52 1.36 1.91 1.47 3.43 0.93 2.12 -0.76 4.79 -0.27 6.59 1.20 l1.36 1.09 -3.16 -0.33 c-2.99 -0.33 -3.21 -0.27 -4.57 1.31 -1.47 1.63 -3.05 2.01 -5.72 1.31z"/>
  <path d="M481.02 73.24 c-0.71 -0.49 -1.69 -0.65 -3.16 -0.44 -2.67 0.44 -2.29 -0.44 0.82 -2.07 1.52 -0.76 2.72 -0.98 3.81 -0.76 1.09 0.27 2.07 0.05 2.94 -0.49 0.71 -0.49 1.85 -0.87 2.45 -0.87 1.47 0 3.81 2.34 3.81 3.81 0 1.25 -0.33 1.31 -2.18 0.27 -1.91 -1.09 -3.48 -0.98 -4.63 0.27 -1.14 1.31 -2.40 1.36 -3.87 0.27z"/>
  <path d="M549.79 61.15 c-0.22 -0.16 -0.05 -0.71 0.27 -1.14 0.60 -0.65 0.44 -0.98 -0.65 -1.69 -2.23 -1.42 -4.63 -3.76 -4.30 -4.08 0.44 -0.49 5.17 1.03 6.92 2.23 0.82 0.54 2.50 0.98 3.92 1.03 2.78 0.05 6.53 1.14 6.53 1.91 0 0.27 -1.36 0.33 -3.10 0.16 -2.78 -0.27 -3.27 -0.22 -4.19 0.82 -1.03 1.09 -4.57 1.63 -5.39 0.76z"/>
  <path d="M496.86 58.53 c-1.09 -0.82 -1.09 -0.82 0.16 -1.91 1.47 -1.20 1.20 -2.07 -1.52 -4.63 -2.01 -1.85 -4.63 -6.97 -3.76 -7.24 0.82 -0.33 8.11 4.74 10.18 7.02 l1.80 2.01 4.08 -1.31 c4.25 -1.36 8.39 -2.18 8.39 -1.69 0 0.16 -1.42 1.09 -3.10 2.07 -1.74 0.98 -4.19 2.50 -5.50 3.38 -3.65 2.45 -9.04 3.59 -10.73 2.29z"/>
  <path d="M464.85 57.34 c-0.22 -0.16 -0.38 -0.87 -0.38 -1.52 0 -0.93 -0.65 -1.31 -3.38 -2.18 -1.91 -0.60 -3.32 -1.31 -3.16 -1.63 0.38 -0.82 6.37 -0.38 8.39 0.54 1.42 0.71 2.29 0.76 4.19 0.33 3.32 -0.76 4.85 -0.71 4.85 0.16 0 0.38 -1.09 1.03 -2.45 1.42 -1.36 0.38 -3.05 1.25 -3.70 1.96 -1.14 1.20 -3.59 1.74 -4.36 0.93z"/>
 </g>
</svg>